# xmcd
#
# Track frame offsets:
#       150
#       17907
#       37377
#       60287
#       83852
#       103407
#       124820
#       146822
#       170537
#       189065
#
# Disc length: 2774 seconds
#
# Revision: 2
# Processed by: cddbd v1.5.2PL0 Copyright (c) Steve Scherf et al.
# Submitted via: FreeDbEdit v0.1
#
DISCID=8b0ad40a
DTITLE=A.C. Kelly - Slammer
DYEAR=1900
DGENRE=
TTITLE0=Treat Your Lady Right
TTITLE1=She's a Slammer
TTITLE2=Inside Your Love
TTITLE3=At the Club
TTITLE4=This Time I'll Be Sweeter
TTITLE5=Synthia
TTITLE6=Hey Love
TTITLE7=Love Rush
TTITLE8=Love of My Life
TTITLE9=Fallen
EXTD=
EXTT0=
EXTT1=
EXTT2=
EXTT3=
EXTT4=
EXTT5=
EXTT6=
EXTT7=
EXTT8=
EXTT9=
PLAYORDER=
